<svg xmlns="http://www.w3.org/2000/svg" xmlns:xlink="http://www.w3.org/1999/xlink" width="560" zoomAndPan="magnify" viewBox="0 0 420 419.999985" height="560" preserveAspectRatio="xMidYMid meet" version="1.0"><defs><clipPath id="406d070815"><path d="M 12.078125 12.109375 L 419.441406 12.109375 L 419.441406 419.472656 L 12.078125 419.472656 Z M 12.078125 12.109375 " clip-rule="nonzero"/></clipPath><clipPath id="db8a65cf4f"><path d="M 215.761719 12.109375 C 103.269531 12.109375 12.078125 103.300781 12.078125 215.792969 C 12.078125 328.28125 103.269531 419.472656 215.761719 419.472656 C 328.25 419.472656 419.441406 328.28125 419.441406 215.792969 C 419.441406 103.300781 328.25 12.109375 215.761719 12.109375 Z M 215.761719 12.109375 " clip-rule="nonzero"/></clipPath><clipPath id="bf9875b95f"><path d="M 0.453125 0.046875 L 407.816406 0.046875 L 407.816406 407.410156 L 0.453125 407.410156 Z M 0.453125 0.046875 " clip-rule="nonzero"/></clipPath><clipPath id="3979d6889a"><path d="M 204.132812 0.046875 C 91.644531 0.046875 0.453125 91.238281 0.453125 203.730469 C 0.453125 316.21875 91.644531 407.410156 204.132812 407.410156 C 316.625 407.410156 407.816406 316.21875 407.816406 203.730469 C 407.816406 91.238281 316.625 0.046875 204.132812 0.046875 Z M 204.132812 0.046875 " clip-rule="nonzero"/></clipPath><clipPath id="92a44309b1"><path d="M 5.925781 12.109375 L 413.285156 12.109375 L 413.285156 419.472656 L 5.925781 419.472656 Z M 5.925781 12.109375 " clip-rule="nonzero"/></clipPath><clipPath id="4948cafe93"><path d="M 209.605469 12.109375 C 97.117188 12.109375 5.925781 103.300781 5.925781 215.792969 C 5.925781 328.28125 97.117188 419.472656 209.605469 419.472656 C 322.09375 419.472656 413.285156 328.28125 413.285156 215.792969 C 413.285156 103.300781 322.09375 12.109375 209.605469 12.109375 Z M 209.605469 12.109375 " clip-rule="nonzero"/></clipPath></defs><g clip-path="url(#406d070815)"><g clip-path="url(#db8a65cf4f)"><path fill="#e4fde8" d="M 12.078125 12.109375 L 419.441406 12.109375 L 419.441406 419.472656 L 12.078125 419.472656 Z M 12.078125 12.109375 " fill-opacity="1" fill-rule="nonzero"/></g></g><g clip-path="url(#bf9875b95f)"><g clip-path="url(#3979d6889a)"><path fill="#e4fde8" d="M 0.453125 0.046875 L 407.816406 0.046875 L 407.816406 407.410156 L 0.453125 407.410156 Z M 0.453125 0.046875 " fill-opacity="1" fill-rule="nonzero"/></g></g><g clip-path="url(#92a44309b1)"><g clip-path="url(#4948cafe93)"><path fill="#b2e4b8" d="M 5.925781 12.109375 L 413.285156 12.109375 L 413.285156 419.472656 L 5.925781 419.472656 Z M 5.925781 12.109375 " fill-opacity="1" fill-rule="nonzero"/></g></g></svg>