<svg xmlns="http://www.w3.org/2000/svg" xmlns:xlink="http://www.w3.org/1999/xlink" width="1366" zoomAndPan="magnify" viewBox="0 0 1024.5 251.250001" height="335" preserveAspectRatio="xMidYMid meet" version="1.0"><defs><clipPath id="ec86d3f645"><path d="M 1.605469 77 L 1022.308594 77 L 1022.308594 231.207031 L 1.605469 231.207031 Z M 1.605469 77 " clip-rule="nonzero"/></clipPath><clipPath id="cd4bbe3df5"><path d="M 1.605469 96 L 1022.726562 96 L 1022.726562 250.042969 L 1.605469 250.042969 Z M 1.605469 96 " clip-rule="nonzero"/></clipPath></defs><g clip-path="url(#ec86d3f645)"><path fill="#fffcef" d="M -1.296875 185.226562 L 56.542969 158.261719 C 114.378906 131.003906 230.054688 77.503906 345.734375 77.285156 C 461.410156 77.503906 577.085938 131.003906 692.761719 146.691406 C 808.4375 162.089844 924.113281 138.957031 981.953125 127.390625 L 1039.789062 115.820312 L 1039.789062 231.496094 L 981.953125 231.496094 C 924.113281 231.496094 808.4375 231.496094 692.761719 231.496094 C 577.085938 231.496094 461.410156 231.496094 345.734375 231.496094 C 230.054688 231.496094 114.378906 231.496094 56.542969 231.496094 L -1.296875 231.496094 Z M -1.296875 185.226562 " fill-opacity="1" fill-rule="nonzero"/></g><g clip-path="url(#cd4bbe3df5)"><path fill="#82c28a" d="M -18.058594 204.011719 L 39.761719 177.050781 C 97.582031 149.804688 213.222656 96.320312 328.863281 96.101562 C 444.503906 96.320312 560.144531 149.804688 675.785156 165.488281 C 791.429688 180.882812 907.070312 157.753906 964.890625 146.191406 L 1022.710938 134.625 L 1022.710938 250.265625 L 964.890625 250.265625 C 907.070312 250.265625 791.429688 250.265625 675.785156 250.265625 C 560.144531 250.265625 444.503906 250.265625 328.863281 250.265625 C 213.222656 250.265625 97.582031 250.265625 39.761719 250.265625 L -18.058594 250.265625 Z M -18.058594 204.011719 " fill-opacity="1" fill-rule="nonzero"/></g></svg>