<svg xmlns="http://www.w3.org/2000/svg" xmlns:xlink="http://www.w3.org/1999/xlink" width="932" zoomAndPan="magnify" viewBox="0 0 699 779.249976" height="1039" preserveAspectRatio="xMidYMid meet" version="1.0"><defs><clipPath id="9caf7684cf"><path d="M 491.351562 0.796875 L 630 0.796875 L 630 777.046875 L 491.351562 777.046875 Z M 491.351562 0.796875 " clip-rule="nonzero"/></clipPath><clipPath id="00eda0b9ba"><path d="M 0.335938 0 L 497.855469 0 L 497.855469 777.109375 L 0.335938 777.109375 Z M 0.335938 0 " clip-rule="nonzero"/></clipPath><clipPath id="773e6b6b28"><path d="M 476.671875 2.050781 L 613 2.050781 L 613 777.554688 L 476.671875 777.554688 Z M 476.671875 2.050781 " clip-rule="nonzero"/></clipPath></defs><g clip-path="url(#9caf7684cf)"><path fill="#b0f4b9" d="M 532.683594 0.796875 L 556.792969 52.507812 C 581.160156 104.214844 628.992188 207.636719 629.1875 311.054688 C 628.992188 414.472656 581.160156 517.890625 567.136719 621.308594 C 553.367188 724.726562 574.050781 828.144531 584.394531 879.851562 L 594.734375 931.5625 L 491.316406 931.5625 L 491.316406 879.851562 C 491.316406 828.144531 491.316406 724.726562 491.316406 621.308594 C 491.316406 517.890625 491.316406 414.472656 491.316406 311.054688 C 491.316406 207.636719 491.316406 104.214844 491.316406 52.507812 L 491.316406 0.796875 Z M 532.683594 0.796875 " fill-opacity="1" fill-rule="nonzero"/></g><g clip-path="url(#00eda0b9ba)"><path fill="#82c28a" d="M 0.335938 0 L 497.855469 0 L 497.855469 777.109375 L 0.335938 777.109375 Z M 0.335938 0 " fill-opacity="1" fill-rule="nonzero"/></g><g clip-path="url(#773e6b6b28)"><path fill="#82c28a" d="M 517.394531 -12.15625 L 541.265625 39.039062 C 565.394531 90.234375 612.75 192.628906 612.941406 295.023438 C 612.75 397.417969 565.394531 499.808594 551.507812 602.203125 C 537.875 704.597656 558.355469 806.992188 568.59375 858.1875 L 578.832031 909.386719 L 476.4375 909.386719 L 476.4375 858.1875 C 476.4375 806.992188 476.4375 704.597656 476.4375 602.203125 C 476.4375 499.808594 476.4375 397.417969 476.4375 295.023438 C 476.4375 192.628906 476.4375 90.234375 476.4375 39.039062 L 476.4375 -12.15625 Z M 517.394531 -12.15625 " fill-opacity="1" fill-rule="nonzero"/></g></svg>